<svg xmlns="http://www.w3.org/2000/svg" width="58" height="58" fill="none" xmlns:v="https://vecta.io/nano"><g clip-path="url(#A)" fill="#515151"><path d="M44.2 14H13.8c-2.096 0-3.8 1.718-3.8 3.83v17.872c0 1.194.546 2.307 1.499 3.051a.63.63 0 0 0 .888-.113.64.64 0 0 0-.113-.895c-.641-.501-1.008-1.245-1.008-2.043V20.383h35.467v15.319c0 .797-.367 1.541-1.008 2.043-.649.522.112 1.514.777 1.008.952-.744 1.499-1.857 1.499-3.051V17.83C48 15.718 46.296 14 44.2 14zm2.533 5.106H11.267V17.83c0-1.407 1.137-2.553 2.533-2.553h30.4c1.396 0 2.533 1.146 2.533 2.553v1.277zm-32.3-2.553h-1.267c-.832.014-.833 1.262 0 1.277h1.267c.832-.014.833-1.262 0-1.277zm3.167 0h-1.267c-.832.014-.833 1.262 0 1.277H17.6c.832-.014.833-1.262 0-1.277zm3.167 0H19.5c-.832.014-.833 1.262 0 1.277h1.267c.832-.014.833-1.262 0-1.277zm4.851 7.922c-.489-.672-1.509.073-1.024.751l1.116 1.549c.492.673 1.508-.074 1.025-.751l-1.117-1.549zm4.015 1.014v-1.915c-.014-.839-1.252-.839-1.267 0v1.915c.014.838 1.252.839 1.267 0zm2.75-1.014l-1.117 1.549c-.483.676.532 1.425 1.025.751l1.117-1.55c.483-.677-.533-1.423-1.025-.75zm-7.817 7.397c0 2.464 1.989 4.468 4.433 4.468 5.873-.225 5.872-8.712 0-8.936-2.445 0-4.433 2.004-4.433 4.468zM29 28.681c1.746 0 3.167 1.432 3.167 3.191-.149 4.224-6.185 4.223-6.333 0 0-1.759 1.421-3.191 3.167-3.191z"/><path d="M31.076 36.06a.64.64 0 0 0-.832.495c-.104.616-.627 1.062-1.244 1.062s-1.139-.446-1.244-1.062a.64.64 0 0 0-.832-.495c-2.547.89-4.258 3.313-4.258 6.025a1.91 1.91 0 0 0 1.9 1.915h8.867a1.91 1.91 0 0 0 1.9-1.915 6.38 6.38 0 0 0-4.258-6.025zm2.358 6.664h-8.867c-.349 0-.633-.286-.633-.638a5.11 5.11 0 0 1 2.819-4.572c.853 1.815 3.642 1.814 4.494 0a5.11 5.11 0 0 1 2.819 4.572c0 .352-.284.638-.633.638h.001zm2.166-7.022a2.77 2.77 0 0 1-1.815-.66.63.63 0 0 0-.892.077.64.64 0 0 0 .076.899 4.09 4.09 0 0 0 3.915.751c-.099.095-.176.209-.2.347a1.11 1.11 0 0 1-.961.92c-.348.04-.597.357-.557.707.34 1.297 2.193.081 2.512-.671 1.536.777 2.525 2.398 2.513 4.122a.53.53 0 0 1-.526.53H36.34c-.83.013-.834 1.263 0 1.277h8.176a1.7 1.7 0 0 0 1.691-1.704c0-2.304-1.453-4.362-3.615-5.121 4.411-2.532.924-9.085-3.623-6.721-1.017-1.543-3.249-2.244-4.986-1.431a.64.64 0 0 0-.325.842c.413.823 1.282-.014 1.941.094 3.766.12 3.766 5.625 0 5.745h.002zm4.292 1.968a.64.64 0 0 0-.077-.191c.645.185 1.381.182 2.023-.004-.033.061-.067.124-.078.195-.162 1.044-1.706 1.044-1.867 0zm2.852.958c1.336.709 2.199 2.116 2.199 3.668 0 .235-.19.428-.424.428h-3.147c.244-.997-.068-2.087-.449-2.987a2.2 2.2 0 0 0 1.822-1.108h-.001zm-3.026-5.798c0-.43-.065-.844-.186-1.234 1.613-1.029 3.878.258 3.828 2.192.024 2.387-3.068 3.468-4.513 1.585.544-.703.871-1.585.871-2.543zm-.648 4.344c-.098.032-.178.071-.26.105-.462-.276-.946-.621-1.489-.684a4.11 4.11 0 0 0 .607-.345c.321.383.708.695 1.142.924h.001zm-27.277 5.122A1.7 1.7 0 0 0 13.484 44h8.176c.831-.014.834-1.262 0-1.277h-3.325a.53.53 0 0 1-.526-.53c-.012-1.725.979-3.346 2.513-4.122.318.752 2.172 1.968 2.512.671.04-.35-.21-.667-.557-.707a1.11 1.11 0 0 1-.961-.92c-.023-.138-.101-.253-.2-.347 1.307.452 2.868.156 3.916-.751a.64.64 0 0 0 .076-.899.63.63 0 0 0-.892-.077c-1.775 1.561-4.716.167-4.665-2.212 0-1.584 1.279-2.872 2.85-2.872.658-.109 1.53.73 1.941-.094.339-1.039-1.253-1.142-1.941-1.182-1.393 0-2.624.703-3.369 1.773-4.551-2.365-8.031 4.192-3.623 6.721-2.163.759-3.616 2.817-3.616 5.122l.001-.001zm6.317-4.626c-.162 1.044-1.706 1.044-1.867 0-.012-.071-.045-.133-.078-.195.641.186 1.378.189 2.023.004-.032.061-.066.121-.077.191v-.001zm1.965-1.421a4.12 4.12 0 0 0 .608.345c-.543.062-1.025.407-1.49.683l-.246-.103c.42-.231.807-.543 1.128-.925zm-5.432-2.462c-.051-1.933 2.215-3.222 3.828-2.192a4.19 4.19 0 0 0 .685 3.777c-1.445 1.884-4.536.801-4.513-1.585zm.616 4.841c.37.647 1.049 1.074 1.821 1.108-.381.899-.694 1.991-.449 2.987h-3.147c-.234 0-.424-.192-.424-.428 0-1.552.862-2.959 2.199-3.668z"/></g><defs><clipPath id="A"><path fill="#fff" transform="translate(10 14)" d="M0 0h38v30H0z"/></clipPath></defs></svg>