<svg xmlns="http://www.w3.org/2000/svg" width="58" height="58" fill="none" xmlns:v="https://vecta.io/nano"><path stroke="#fff" d="M.5.5h57v57H.5z"/><g clip-path="url(#A)"><path d="M44.597 24.96c-2.884-.603-5.807-.265-8.685 1.006-.242.107-.364.39-.277.648l.316.942c-1.295 0-2.372-.351-3.501-.72l-1.063-.336c-1.698-.5-3.41-.069-4.696 1.182l-.159.154c-2.197.513-3.714.48-5.527-.143l.361-1.078c.087-.258-.035-.541-.277-.648-2.878-1.27-5.801-1.609-8.685-1.006-.234.049-.403.262-.403.509v12.897c0 .287.225.52.503.52h4.396c.214 0 .405-.14.475-.35l.198-.591c1.677.652 2.969 2.043 3.69 2.819l.201.216 5.177 5.486c.321.34.754.529 1.219.532a1.71 1.71 0 0 0 1.246-.527c.207-.214.351-.468.431-.739.769.444 1.761.329 2.415-.346.34-.351.533-.797.579-1.256a1.98 1.98 0 0 0 .555.079 1.97 1.97 0 0 0 1.428-.61c.365-.377.56-.864.587-1.359.644.138 1.342-.051 1.842-.567.736-.762.783-1.952.137-2.792a2.73 2.73 0 0 0 .518-.161c.517-.218.994-.466 1.455-.706l.343-.177.234.698c.07.209.261.35.475.35h4.396c.277 0 .503-.233.503-.52V25.471c0-.247-.169-.461-.403-.509l-.002-.001zM16.541 37.847h-3.536V25.902c2.406-.423 4.843-.143 7.255.837l-3.719 11.108v.001zm19.69 3.092a.99.99 0 0 1-1.435 0l-3.162-3.345a.49.49 0 0 0-.711-.009c-.198.2-.202.529-.009.735l2.884 3.056c.4.413.4 1.079.005 1.487a.99.99 0 0 1-1.434 0l-3.297-3.483a.49.49 0 0 0-.71-.009c-.198.2-.202.529-.009.735l2.883 3.057c.194.202.3.465.3.746a1.06 1.06 0 0 1-.295.742.99.99 0 0 1-1.435 0l-3.58-3.776a.49.49 0 0 0-.71-.009c-.198.2-.202.529-.009.735l2.884 3.056c.29.302.29.783.004 1.08-.141.146-.328.224-.529.223-.194-.001-.374-.079-.506-.218l-5.177-5.486-.196-.21c-.783-.843-2.186-2.353-4.086-3.082l2.776-8.288c1.083.373 2.083.556 3.153.556.439 0 .891-.032 1.364-.093l-1.163 1.131c-.556.541-.85 1.245-.85 2.034v5.223c0 .287.225.52.503.52 2.166 0 4.407-1.417 4.407-3.788 0-.819.624-1.404 1.102-1.808l5.477 5.661a2.74 2.74 0 0 0 .892.619l.663.717c.397.43.401 1.085.007 1.492v-.002zm2.369-3.852l-1.383.672c-.653.276-1.34.132-1.839-.383l-5.8-5.994a.49.49 0 0 0-.69-.02l-.211.181c-.558.465-1.594 1.331-1.594 2.716 0 .977-.556 1.611-1.021 1.971-.517.399-1.181.661-1.877.747v-4.672c0-.51.174-.928.534-1.277l2.66-2.587a3.72 3.72 0 0 1 3.732-.939l1.035.328c1.249.409 2.538.83 4.149.761l2.765 8.26-.462.238h.001zm5.395.76h-3.536l-3.719-11.108c2.412-.979 4.848-1.26 7.255-.837v11.945-.001zm-27.186-13.78h6.804v1.471c0 .287.225.52.503.52h8.771c.277 0 .503-.233.503-.52v-1.471h6.804c.277 0 .503-.233.503-.52v-2.173c0-1.778-1.025-3.333-2.544-4.014a3.25 3.25 0 0 0 .8-2.141c0-1.774-1.41-3.217-3.144-3.217s-3.144 1.444-3.144 3.217c0 .822.303 1.573.801 2.142-.96.435-1.739 1.227-2.172 2.223a4.03 4.03 0 0 0-.447-.233 3.25 3.25 0 0 0 .8-2.141c0-1.774-1.41-3.218-3.143-3.218s-3.144 1.444-3.144 3.218a3.25 3.25 0 0 0 .799 2.141 4.29 4.29 0 0 0-.447.233c-.434-.995-1.212-1.788-2.172-2.223a3.25 3.25 0 0 0 .801-2.142c0-1.774-1.41-3.217-3.143-3.217s-3.144 1.444-3.144 3.217a3.25 3.25 0 0 0 .799 2.141c-1.518.681-2.544 2.237-2.544 4.014v2.173c0 .287.225.52.503.52zm15.574.951h-7.765v-1.654c0-1.571 1.049-2.915 2.518-3.257.413.204.876.319 1.364.319s.951-.114 1.364-.319c1.469.342 2.518 1.686 2.518 3.257v1.654zm3.424-11.977c1.179 0 2.138.977 2.138 2.178s-.959 2.178-2.138 2.178-2.138-.977-2.138-2.178.959-2.178 2.138-2.178zm-1.364 5.077a3.06 3.06 0 0 0 1.364.319c.489 0 .952-.115 1.364-.319 1.469.342 2.518 1.686 2.518 3.257v1.654h-6.315c-.08-1.083-.541-2.065-1.256-2.791.375-1.064 1.252-1.869 2.324-2.119h0zM28.5 15.031c1.179 0 2.138.977 2.138 2.178s-.959 2.178-2.138 2.178-2.138-.977-2.138-2.178.959-2.178 2.138-2.178zm-7.306-1.991c1.179 0 2.138.977 2.138 2.178s-.959 2.178-2.138 2.178-2.138-.977-2.138-2.178.959-2.178 2.138-2.178zm-3.883 8.334c0-1.571 1.05-2.915 2.518-3.257.413.204.876.32 1.364.32a3.06 3.06 0 0 0 1.364-.319c1.072.251 1.949 1.055 2.324 2.119a4.43 4.43 0 0 0-1.256 2.791h-6.315v-1.654-.001z" fill="#515151"/></g><defs><clipPath id="A"><path fill="#fff" transform="translate(12 12)" d="M0 0h33v35H0z"/></clipPath></defs></svg>