<svg xmlns="http://www.w3.org/2000/svg" width="58" height="58" fill="none" xmlns:v="https://vecta.io/nano"><g clip-path="url(#A)" fill="#515151"><path d="M33.415 21.114c.862 0 1.563-.719 1.563-1.604s-.701-1.604-1.562-1.604-1.563.72-1.563 1.604a1.62 1.62 0 0 0 .314.963l-2.568 3.682a1.53 1.53 0 0 0-.486-.08c-.411 0-.784.163-1.064.43l-1.711-.997c.023-.109.035-.221.035-.337 0-.884-.701-1.604-1.562-1.604s-1.562.719-1.562 1.604a1.67 1.67 0 0 0 .035.337l-1.711.997c-.279-.267-.653-.43-1.064-.43-.862 0-1.562.72-1.562 1.604s.701 1.604 1.563 1.604 1.563-.72 1.563-1.604a1.67 1.67 0 0 0-.035-.337l1.711-.997c.279.267.653.43 1.064.43s.784-.163 1.064-.43l1.711.997c-.023.109-.035.221-.035.337 0 .884.701 1.604 1.563 1.604s1.563-.72 1.563-1.604a1.62 1.62 0 0 0-.314-.963l2.568-3.682a1.53 1.53 0 0 0 .486.08v.001zm0-2.245c.344 0 .625.288.625.641s-.281.641-.625.641-.625-.288-.625-.641.281-.641.625-.641zM20.508 26.32c-.344 0-.625-.288-.625-.641s.281-.641.625-.641.625.288.625.641-.281.641-.625.641zm4.302-2.507c-.344 0-.625-.288-.625-.641s.281-.641.625-.641.625.288.625.641-.281.641-.625.641zm4.302 2.507c-.344 0-.625-.288-.625-.641s.281-.641.625-.641.625.288.625.641-.281.641-.625.641zm10.063 10.439H14.326c-.214 0-.389-.179-.389-.398V16.513c0-.22.174-.399.389-.399h2.21c.259 0 .469-.216.469-.481s-.21-.481-.469-.481h-2.21c-.731.001-1.326.611-1.326 1.361V36.36c0 .751.595 1.361 1.326 1.361h3.232v1.059c0 .603.478 1.094 1.066 1.094h4.692L21.107 44.3c-.118.237-.027.527.204.648.068.036.141.053.213.053.171 0 .334-.096.417-.262l2.428-4.865h5.183l2.427 4.865c.083.166.247.262.417.262.072 0 .145-.017.213-.053a.49.49 0 0 0 .204-.648l-2.209-4.426h4.692c.587 0 1.066-.491 1.066-1.094v-1.059h2.812c.259 0 .469-.215.469-.481s-.21-.481-.469-.481l.001.001zm-3.749 2.021a.13.13 0 0 1-.128.132H18.624a.13.13 0 0 1-.128-.132v-1.059h16.93v1.059zM18.411 16.115h21.184c.214 0 .388.179.388.399v4.574c0 .265.21.481.469.481s.469-.216.469-.481v-4.575c0-.75-.595-1.361-1.326-1.361H29.562v-.945c0-.666-.527-1.207-1.176-1.207h-2.851c-.649 0-1.176.541-1.176 1.207v.945H18.41c-.259 0-.469.216-.469.481s.21.481.469.481l.001.001zm6.886-1.908c0-.135.107-.245.239-.245h2.851c.131 0 .239.11.239.245v.945h-3.328v-.945h-.001zm-5.742 15.535c-.259 0-.469.216-.469.481v4.251c0 .266.21.481.469.481h1.902c.259 0 .469-.215.469-.481v-4.251c0-.266-.21-.481-.469-.481h-1.902zm1.433 4.251h-.964v-3.288h.964v3.288zm2.871-6.709c-.259 0-.469.216-.469.481v6.709c0 .266.21.481.469.481h1.902c.259 0 .469-.215.469-.481v-6.709c0-.265-.21-.481-.469-.481h-1.902zm1.433 6.709h-.964v-5.747h.964v5.747zm2.868-4.251c-.259 0-.469.216-.469.481v4.251c0 .266.21.481.469.481h1.902c.259 0 .469-.215.469-.481v-4.251c0-.266-.21-.481-.469-.481H28.16zm1.433 4.251h-.964v-3.288h.964v3.288zm2.872-1.412c-.259 0-.469.216-.469.481v1.412c0 .266.21.481.469.481h1.902c.259 0 .469-.215.469-.481s-.21-.481-.469-.481h-1.433v-.931c0-.265-.21-.481-.469-.481zm12.294 4.63L42.07 32.43c.681-.745 1.178-1.656 1.443-2.671a6.39 6.39 0 0 0-.612-4.771c-1.689-3.003-5.444-4.035-8.369-2.301s-3.932 5.587-2.242 8.589c.818 1.455 2.139 2.495 3.72 2.929a6.02 6.02 0 0 0 1.596.217 5.92 5.92 0 0 0 1.38-.164l2.689 4.781c.329.586.93.914 1.546.914a1.74 1.74 0 0 0 .888-.244c.55-.326.891-.933.891-1.585a1.87 1.87 0 0 0-.239-.913h-.001zm-8.507-3.934c-1.339-.368-2.458-1.249-3.151-2.481-1.431-2.543-.579-5.807 1.899-7.275.815-.483 1.706-.713 2.586-.713 1.794 0 3.542.955 4.502 2.662a5.41 5.41 0 0 1 .518 4.041c-.359 1.374-1.218 2.523-2.418 3.233a5.04 5.04 0 0 1-3.937.532l.001.001zm7.387 5.599c-.403.239-.921.097-1.154-.317l-2.587-4.599a6 6 0 0 0 .76-.382 6.16 6.16 0 0 0 .702-.486l2.588 4.6a.89.89 0 0 1 .114.432c0 .309-.162.597-.422.751zm-1.792-9.388c.331-1.094.252-2.265-.222-3.298-.111-.241-.389-.343-.624-.23s-.334.4-.224.64a3.68 3.68 0 0 1 .175 2.602 3.58 3.58 0 0 1-1.598 2.053 3.41 3.41 0 0 1-2.666.36c-.906-.25-1.664-.846-2.133-1.68-.969-1.722-.392-3.931 1.286-4.925a3.43 3.43 0 0 1 3.878.248.46.46 0 0 0 .657-.094.49.49 0 0 0-.091-.674 4.35 4.35 0 0 0-4.913-.314c-1.029.61-1.766 1.595-2.074 2.774a4.64 4.64 0 0 0 .444 3.466c.594 1.056 1.554 1.813 2.702 2.128a4.38 4.38 0 0 0 1.159.158 4.34 4.34 0 0 0 2.218-.614c.973-.577 1.692-1.5 2.025-2.6v.001z"/></g><defs><clipPath id="A"><path fill="#fff" transform="translate(13 13)" d="M0 0h32v32H0z"/></clipPath></defs></svg>