<svg xmlns="http://www.w3.org/2000/svg" width="58" height="58" fill="none" xmlns:v="https://vecta.io/nano"><path d="M35.874 37.53c-.091-1.183-.385-1.717-1.209-2.197-.595-.346-1.594-.6-2.476-.824l-.612-.158-.136-.038a1.55 1.55 0 0 0-1.432.303 1.55 1.55 0 0 1-2.017 0 1.55 1.55 0 0 0-1.432-.303l-.133.037-.615.159c-.882.224-1.881.477-2.476.824-.824.48-1.117 1.014-1.209 2.197-.112 2.036-.06 3.901.006 5.457.048 1.127.975 2.011 2.111 2.011h9.517c1.136 0 2.063-.883 2.111-2.011l.006-5.448-.003-.009zm-6.702-1.66l.448 4.45-.622.884-.622-.884.448-4.45a2.29 2.29 0 0 0 .347 0h.001zm5.808 7.081c-.028.653-.565 1.165-1.223 1.165h-.399v-3.891c0-.244-.199-.442-.444-.442s-.444.197-.444.442v3.891h-6.94v-3.891c0-.244-.199-.442-.445-.442s-.444.197-.444.442v3.891h-.399c-.658 0-1.195-.512-1.223-1.165l-.007-5.357c.073-.939.257-1.198.772-1.497.487-.284 1.421-.521 2.246-.73l.631-.163.137-.038a.66.66 0 0 1 .627.133 2.67 2.67 0 0 0 .531.339l-.479 4.758c-.011.105.017.21.078.297l1.08 1.536c.083.119.219.189.364.189s.281-.071.364-.189l1.08-1.536a.44.44 0 0 0 .078-.297l-.479-4.758a2.62 2.62 0 0 0 .531-.339.66.66 0 0 1 .627-.133l.14.038.628.162c.825.209 1.76.447 2.246.73.515.3.699.559.772 1.498.11 1.986.058 3.822-.007 5.357h.001zm-6.01-8.62l.029.001.029-.001c2.069-.133 3.279-2.337 3.215-4.304-.065-1.989-1.338-3.274-3.244-3.274s-3.179 1.285-3.244 3.274c-.064 1.966 1.147 4.17 3.215 4.304zm-2.327-4.275c.018-.568.243-2.419 2.355-2.419s2.337 1.852 2.356 2.419c.051 1.551-.883 3.276-2.356 3.392-1.472-.117-2.406-1.84-2.355-3.392zm10.725-1.961l-1.432-.281-.549-1.315.813-1.206a.44.44 0 0 0-.055-.558l-1.951-1.938c-.15-.15-.385-.172-.562-.054l-1.213.808-1.324-.546-.283-1.423c-.041-.207-.224-.356-.436-.356h-2.759c-.212 0-.395.149-.436.356l-.283 1.423-1.324.546-1.213-.808c-.177-.117-.412-.095-.562.054l-1.95 1.938a.44.44 0 0 0-.055.558l.813 1.206-.549 1.315-1.432.281c-.208.041-.359.222-.359.433v1.37c0 .244.199.442.444.442h3.597c.246 0 .445-.198.445-.442 0-2.325 1.904-4.216 4.243-4.216s4.243 1.891 4.243 4.216c0 .244.199.442.444.442h3.596c.246 0 .444-.198.444-.442v-1.37c0-.211-.15-.392-.359-.433h.002zm-.53 1.361h-2.726c-.226-2.606-2.433-4.658-5.113-4.658s-4.887 2.052-5.113 4.658h-2.727v-.565l1.307-.256c.146-.028.267-.127.324-.264l.731-1.753a.44.44 0 0 0-.041-.415l-.743-1.1 1.434-1.425 1.107.738c.124.082.281.098.418.041l1.764-.727c.137-.057.237-.178.266-.322l.258-1.299h2.028l.258 1.299a.44.44 0 0 0 .266.322l1.763.727c.138.057.295.041.418-.041l1.108-.738 1.434 1.425-.743 1.101a.44.44 0 0 0-.041.415l.732 1.753c.057.136.179.235.324.264l1.307.256v.565-.001zm-8.283-12.907v3.324c0 .244.199.442.445.442s.444-.197.444-.442V16.55c.511-.182.878-.667.878-1.236a1.32 1.32 0 0 0-2.645 0c0 .57.367 1.054.878 1.236v-.001zm.445-1.667c.239 0 .434.193.434.431s-.194.431-.434.431-.434-.193-.434-.431.194-.431.434-.431zm-10.378 6.016a1.33 1.33 0 0 0 .565-.128l2.365 2.35c.087.086.201.129.314.129s.227-.043.314-.129a.44.44 0 0 0 0-.625l-2.365-2.35a1.31 1.31 0 0 0-.259-1.491 1.32 1.32 0 0 0-1.87 0 1.31 1.31 0 0 0 0 1.859c.258.256.597.384.935.384l.001.001zm-.307-1.618a.43.43 0 0 1 .307-.126.43.43 0 0 1 .307.736c-.169.168-.444.168-.613 0a.43.43 0 0 1 0-.61zm.597 10.176h-3.345c-.183-.508-.671-.873-1.244-.873A1.32 1.32 0 0 0 13 29.898a1.32 1.32 0 0 0 2.566.442h3.345c.246 0 .444-.198.444-.442s-.199-.442-.444-.442zm-4.589.873c-.239 0-.434-.193-.434-.431s.194-.431.434-.431.434.193.434.431-.194.431-.434.431zm21.811-7.079c.114 0 .227-.043.314-.129l2.364-2.349c.175.083.366.128.566.128a1.32 1.32 0 0 0 .935-.385 1.3 1.3 0 0 0 .387-.929c0-.351-.138-.681-.387-.929a1.32 1.32 0 0 0-1.87 0 1.31 1.31 0 0 0-.259 1.491l-2.365 2.35a.44.44 0 0 0 0 .625c.087.086.201.129.314.129h.001zm2.938-3.97c.082-.081.191-.126.307-.126s.225.045.307.126c.036.036.036.036 0 0 .082.081.127.189.127.305s-.045.223-.127.305-.191.126-.307.126-.225-.045-.307-.126a.43.43 0 0 1 0-.609zm4.606 9.303a1.32 1.32 0 0 0-1.244.873h-3.345c-.246 0-.444.197-.444.442s.199.442.444.442h3.345c.184.508.671.873 1.244.873a1.32 1.32 0 0 0 1.323-1.314 1.32 1.32 0 0 0-1.323-1.314zm0 1.745c-.239 0-.434-.193-.434-.431s.194-.431.434-.431.434.193.434.431-.194.431-.434.431zm-11.48-8.174c.055.023.112.033.168.033.175 0 .341-.103.411-.274l.892-2.16.062.003c.173 0 .346-.034.51-.102.326-.136.579-.389.714-.713s.133-.682-.003-1.006a1.31 1.31 0 0 0-.718-.709c-.327-.133-.686-.132-1.012.003a1.31 1.31 0 0 0-.714.713 1.3 1.3 0 0 0 .003 1.006c.077.182.192.341.337.469l-.892 2.16a.44.44 0 0 0 .243.576v.001zm1.132-3.876a.43.43 0 0 1 .401-.267c.056 0 .112.011.164.032a.43.43 0 0 1 .236.232c.044.106.045.223.001.33a.43.43 0 0 1-.234.234c-.107.044-.225.045-.332.001a.43.43 0 0 1-.236-.232c-.044-.106-.045-.223-.001-.33h.001zm-9.639 1.411c.162.066.332.099.502.099.023 0 .047-.002.07-.004l.906 2.153c.071.169.236.271.41.271.057 0 .116-.011.171-.034a.44.44 0 0 0 .239-.578l-.906-2.153a1.31 1.31 0 0 0 .333-.472 1.3 1.3 0 0 0-.003-1.006c-.136-.324-.391-.575-.718-.709s-.686-.132-1.012.003c-.673.279-.991 1.051-.71 1.719a1.31 1.31 0 0 0 .718.709h-.001zm.335-1.613a.43.43 0 0 1 .167-.034c.056 0 .112.011.165.032.107.044.191.126.236.232s.045.223.001.33a.43.43 0 0 1-.234.234c-.107.044-.225.045-.332.001a.43.43 0 0 1-.003-.796zm-7.056 8.337c.162.066.332.099.502.099s.346-.034.511-.102c.183-.076.343-.191.472-.334l2.173.886a.44.44 0 0 0 .168.033c.175 0 .341-.103.411-.274a.44.44 0 0 0-.242-.576l-2.174-.886c.025-.539-.288-1.061-.818-1.276-.675-.275-1.449.047-1.726.717s.047 1.44.721 1.715h.001zm.101-1.379c.091-.22.345-.325.566-.235a.43.43 0 0 1 .003.796c-.107.044-.225.045-.332.001a.43.43 0 0 1-.237-.562zm22.918-1.126c-.529.22-.837.743-.809 1.282l-2.168.901a.44.44 0 0 0-.239.578c.071.169.236.271.41.271.057 0 .116-.011.172-.034l2.168-.9a1.32 1.32 0 0 0 .475.331c.162.066.332.099.502.099s.346-.034.511-.102c.673-.28.991-1.051.71-1.719s-1.058-.985-1.73-.705l-.001-.001zm.91 1.046a.43.43 0 0 1-.233.564c-.107.045-.225.045-.332.001a.43.43 0 0 1-.003-.796c.055-.023.111-.033.166-.033.169 0 .331.1.401.265h.001z" fill="#515151"/></svg>