<svg xmlns="http://www.w3.org/2000/svg" width="58" height="58" fill="none" xmlns:v="https://vecta.io/nano"><path fill="#fff" d="M0 0h58v58H0z"/><g clip-path="url(#A)" fill="#515151"><path d="M29 39.2c5.745 0 10.419-4.576 10.419-10.2S34.746 18.8 29 18.8 18.581 23.376 18.581 29 23.255 39.2 29 39.2zM29 20c5.069 0 9.194 4.037 9.194 9S34.07 38 29 38s-9.193-4.037-9.193-9 4.124-9 9.194-9zm3.677 13.2h2.452c.339 0 .613-.269.613-.6v-7.8c0-.332-.274-.6-.613-.6h-2.452c-.339 0-.613.268-.613.6v7.8c0 .331.274.6.613.6zm.613-7.8h1.226V32H33.29v-6.6zm-5.516 7.8h2.452c.339 0 .613-.269.613-.6v-6c0-.332-.274-.6-.613-.6h-2.452c-.339 0-.613.268-.613.6v6c0 .331.274.6.613.6zm.613-6h1.226V32h-1.226v-4.8zm-3.065 6c.339 0 .613-.269.613-.6V29c0-.331-.274-.6-.613-.6H22.87c-.339 0-.613.269-.613.6v3.6c0 .331.274.6.613.6h2.452zm-1.839-3.6h1.226V32h-1.226v-2.4zm-6.816-4.332a1.25 1.25 0 0 1-.811.848l-1.643.523a.6.6 0 0 0-.419.499c-.078.637-.117 1.263-.117 1.862s.039 1.226.118 1.862c.028.232.192.427.419.499l1.643.523c.388.123.69.44.81.848l.192.599a1.31 1.31 0 0 1-.172 1.201l-.979 1.34a.59.59 0 0 0-.037.642 15.34 15.34 0 0 0 2.269 3.026.62.62 0 0 0 .649.154l1.482-.509a1.19 1.19 0 0 1 1.121.196l.494.367a1.28 1.28 0 0 1 .542 1.066l-.017 1.465a.6.6 0 0 0 .352.55 15.29 15.29 0 0 0 3.688 1.161.67.67 0 0 0 .11.009c.201 0 .391-.097.506-.263l.793-1.139c.235-.337.621-.517 1.025-.523h.631c.408-.023.789.186 1.024.523l.792 1.139c.136.197.378.296.617.252a15.3 15.3 0 0 0 3.688-1.161.6.6 0 0 0 .352-.55l-.017-1.465c-.005-.425.198-.824.541-1.066l.494-.366a1.19 1.19 0 0 1 1.122-.196l1.482.509a.62.62 0 0 0 .649-.154 15.31 15.31 0 0 0 2.268-3.026.59.59 0 0 0-.036-.642l-.979-1.34a1.31 1.31 0 0 1-.172-1.201l.192-.599a1.25 1.25 0 0 1 .81-.848l1.643-.523c.227-.073.391-.267.419-.5a15.4 15.4 0 0 0 .117-1.863 15.21 15.21 0 0 0-.118-1.862.6.6 0 0 0-.419-.499l-1.642-.523a1.25 1.25 0 0 1-.811-.848l-.192-.599a1.31 1.31 0 0 1 .172-1.201l.979-1.34a.59.59 0 0 0 .037-.642 15.33 15.33 0 0 0-2.269-3.026.62.62 0 0 0-.649-.154l-1.482.509c-.378.131-.797.057-1.121-.196l-.494-.367a1.28 1.28 0 0 1-.542-1.066l.017-1.465a.6.6 0 0 0-.352-.55 15.29 15.29 0 0 0-3.688-1.161.62.62 0 0 0-.617.252l-.793 1.139a1.23 1.23 0 0 1-1.025.524c-.21-.005-.421-.005-.631 0a1.19 1.19 0 0 1-1.024-.524l-.792-1.139a.62.62 0 0 0-.617-.252 15.29 15.29 0 0 0-3.688 1.161.6.6 0 0 0-.352.55l.017 1.465a1.29 1.29 0 0 1-.541 1.066l-.494.366c-.323.252-.743.325-1.122.196l-1.482-.509a.62.62 0 0 0-.649.154 15.28 15.28 0 0 0-2.268 3.026.59.59 0 0 0 .036.642l.979 1.34c.25.342.314.791.171 1.201l-.191.602h.001zm1.019-2.499l-.75-1.027a14.11 14.11 0 0 1 1.63-2.176l1.099.378c.779.268 1.635.121 2.291-.389l.447-.332c.667-.471 1.06-1.238 1.05-2.053l-.013-1.073a14.08 14.08 0 0 1 2.642-.832l.564.811a2.45 2.45 0 0 0 2.068 1.047h.572c.83.025 1.598-.37 2.068-1.047l.565-.811a14.07 14.07 0 0 1 2.642.832l-.013 1.073a2.48 2.48 0 0 0 1.051 2.053l.447.332a2.43 2.43 0 0 0 2.291.389l1.099-.378a14.09 14.09 0 0 1 1.63 2.176l-.75 1.026c-.48.656-.605 1.511-.335 2.286l.175.547c.233.791.835 1.41 1.609 1.657l1.265.402.067 1.34a14.06 14.06 0 0 1-.067 1.34l-1.264.402a2.46 2.46 0 0 0-1.61 1.657l-.175.546a2.49 2.49 0 0 0 .335 2.286l.749 1.027a14.1 14.1 0 0 1-1.63 2.176l-1.099-.378c-.78-.269-1.635-.122-2.291.389l-.447.331c-.667.471-1.06 1.238-1.05 2.053l.013 1.073a14.03 14.03 0 0 1-2.642.832l-.564-.811a2.44 2.44 0 0 0-2.006-1.048h-.062-.572c-.835-.019-1.598.37-2.068 1.047l-.565.811a14.07 14.07 0 0 1-2.642-.833l.013-1.073a2.48 2.48 0 0 0-1.051-2.053l-.447-.332c-.657-.511-1.512-.658-2.291-.389l-1.099.378a14.09 14.09 0 0 1-1.63-2.176l.75-1.026a2.49 2.49 0 0 0 .335-2.286l-.175-.547c-.233-.791-.835-1.41-1.609-1.657l-1.265-.402-.067-1.34a14.06 14.06 0 0 1 .067-1.34l1.265-.402a2.46 2.46 0 0 0 1.609-1.657l.175-.546c.27-.776.145-1.631-.335-2.286v.001zm29.508-.938l-1.174.383C43.216 15.485 36.464 11 29 11s-14.617 4.739-17.263 11.793l1.151.413C15.357 16.624 21.832 12.2 29 12.2s13.22 4.154 15.855 10.394l-1.339.437c-.213.07-.37.247-.409.463s.045.436.221.575l3.064 2.4a.62.62 0 0 0 .382.131.61.61 0 0 0 .219-.04.6.6 0 0 0 .385-.462l.613-3.6c.035-.208-.043-.418-.207-.555a.62.62 0 0 0-.591-.113l.001.001zm-.852 3.061l-1.369-1.072 1.643-.536-.274 1.608zm-35.628 10.7l1.108-.181C14.527 42.35 21.397 47 29 47s14.617-4.739 17.264-11.793l-1.151-.413C42.643 41.377 36.167 45.8 29 45.8s-13.354-4.24-15.938-10.591l1.329-.218a.61.61 0 0 0 .472-.377c.077-.2.041-.423-.094-.59l-2.452-3c-.14-.172-.366-.256-.587-.216a.61.61 0 0 0-.473.401l-1.226 3.601a.59.59 0 0 0 .115.58.62.62 0 0 0 .466.211.58.58 0 0 0 .101-.008zm1.35-2.956l1.096 1.34-1.643.268.547-1.609z"/></g><defs><clipPath id="A"><path fill="#fff" transform="translate(10 11)" d="M0 0h38v36H0z"/></clipPath></defs></svg>