<svg xmlns="http://www.w3.org/2000/svg" width="36" height="36" fill="none" xmlns:v="https://vecta.io/nano"><path stroke="#ededed" d="M.5.5h35v35H.5z"/><g clip-path="url(#A)" fill="#bc1d8d"><path d="M27.746 23.324l-.684-.097c-.053-.168-.12-.331-.201-.486l.415-.553c.087-.117.076-.28-.027-.384l-.755-.755c-.104-.104-.267-.115-.384-.027l-.552.415a2.98 2.98 0 0 0-.486-.201l-.097-.684c-.02-.145-.145-.252-.291-.252h-1.068c-.146 0-.27.107-.291.252l-.097.684c-.168.053-.33.12-.485.201l-.479-.36a5.08 5.08 0 0 0 1.293-2.817h.124c.162 0 .294-.131.294-.293s-.131-.293-.294-.293h-.086l.001-.05c0-.456-.06-.908-.177-1.344-.042-.157-.203-.249-.36-.207s-.249.204-.207.36a4.58 4.58 0 0 1 .157 1.191c0 1.259-.502 2.43-1.412 3.298-.042.042-.916.923-1.179 1.844-.058.203-.092.508-.112.802a.26.26 0 0 0-.004.048v.016l-.02.493h-.832l-.069-2.068.07-1.134c.382-.058.795-.159 1.089-.335.533-.319.646-.968.417-1.373-.18-.319-.624-.568-1.278-.218-.335.178-.568.588-.711 1.251l-.029.145-.481.022c-.108 0-.28-.005-.479-.022l-.029-.146c-.144-.663-.377-1.072-.711-1.251-.655-.349-1.098-.1-1.278.218-.119.21-.146.477-.074.733a1.09 1.09 0 0 0 .491.64c.294.176.708.278 1.089.336a11.55 11.55 0 0 1 .07 1.134c.015.845-.038 1.663-.07 2.068h-.832c-.009-.378-.038-1.014-.136-1.359-.261-.916-1.136-1.802-1.173-1.839a4.52 4.52 0 0 1-1.418-3.304 4.56 4.56 0 0 1 8.532-2.212c.079.142.257.193.399.114s.193-.258.114-.399a5.14 5.14 0 0 0-1.147-1.405h.343c.162 0 .294-.132.294-.293s-.131-.293-.294-.293h-.391c-.162 0-.294.131-.294.293l.001.025c-.787-.568-1.729-.909-2.723-.964l-.902-.128a4.41 4.41 0 0 0-.36-.87l.675-.9c.088-.117.076-.28-.027-.384L17 9.078c-.104-.104-.267-.115-.384-.027l-.898.676a4.34 4.34 0 0 0-.869-.36l-.158-1.114c-.021-.145-.145-.252-.291-.252h-1.595c-.146 0-.27.107-.291.252l-.158 1.114a4.4 4.4 0 0 0-.869.36l-.898-.676c-.117-.088-.28-.076-.384.027l-1.128 1.129c-.103.103-.115.267-.027.384l.675.9a4.41 4.41 0 0 0-.36.87l-1.113.158c-.145.021-.252.144-.252.291v1.596c0 .146.107.27.252.291l1.113.158a4.41 4.41 0 0 0 .36.87l-.675.9c-.088.117-.076.28.027.384l1.128 1.128c.103.104.267.115.384.027l.898-.676a4.34 4.34 0 0 0 .869.36l.158 1.114c.021.145.145.252.291.252h.765a5.11 5.11 0 0 0 1.342 2.129c.045.046.807.829 1.022 1.583.098.342.118 1.193.117 1.491v.983c0 .648.462 1.191 1.074 1.315a1.34 1.34 0 0 0 1.311 1.072h.047a1.34 1.34 0 0 0 1.311-1.072c.612-.124 1.074-.666 1.074-1.315v-.382l.373.053a3.08 3.08 0 0 0 .201.486l-.415.553c-.088.117-.076.28.027.384l.755.755c.104.104.267.115.384.027l.552-.415c.156.081.318.148.486.201l.097.684c.021.145.144.252.291.252h1.068c.146 0 .27-.108.291-.252l.097-.684a3.07 3.07 0 0 0 .485-.201l.552.415c.117.088.281.076.384-.027l.755-.755c.103-.104.115-.267.027-.384l-.415-.553a2.99 2.99 0 0 0 .201-.486l.684-.097c.144-.021.252-.145.252-.291v-1.069c0-.146-.108-.27-.252-.291l-.001-.001zm-7.791-3.812c.071-.038.205-.1.32-.1.07 0 .134.023.172.089.08.142.04.432-.208.581-.173.104-.422.176-.683.226.14-.597.323-.755.4-.796h0zm-3.277.57c-.248-.149-.288-.438-.208-.581.038-.066.101-.089.171-.089.115 0 .249.062.32.1.077.041.26.199.4.796-.261-.05-.511-.123-.683-.226h0zm-3.619-1.456l-.149-1.053c-.017-.119-.104-.215-.221-.244a3.83 3.83 0 0 1-1.072-.444c-.103-.062-.233-.056-.329.016l-.85.639-.768-.768.639-.851c.072-.096.079-.226.016-.328a3.83 3.83 0 0 1-.444-1.072c-.029-.116-.125-.204-.244-.221l-1.052-.15v-1.087l1.052-.15c.119-.017.215-.104.244-.221.093-.379.242-.739.444-1.072.062-.102.056-.232-.016-.329l-.639-.851.768-.768.85.639c.096.072.226.079.329.016.333-.202.693-.352 1.072-.444.116-.029.204-.125.221-.244l.15-1.054h1.085l.149 1.054c.017.119.104.215.221.244a3.81 3.81 0 0 1 1.072.444c.103.063.233.056.329-.016l.85-.639.768.768-.639.851c-.072.096-.078.226-.016.329a3.8 3.8 0 0 1 .422.991 5.1 5.1 0 0 0-1.366.533 2.33 2.33 0 0 0-2.308-2.056 2.32 2.32 0 0 0-1.936 1.039c-.09.135-.053.317.082.407s.317.053.407-.082c.323-.486.864-.777 1.447-.777a1.74 1.74 0 0 1 1.737 1.739l-.004.108a5.18 5.18 0 0 0-1.387 1.596 1.75 1.75 0 0 1-.346.035 1.74 1.74 0 0 1-1.737-1.739c0-.162-.131-.293-.293-.293s-.293.132-.293.293a2.33 2.33 0 0 0 2.324 2.326h.051c-.23.583-.356 1.218-.356 1.882a5.21 5.21 0 0 0 .097 1.004h-.358-.001zm8.382 4.114a3 3 0 0 0-.201.486l-.316.045a2.3 2.3 0 0 1 .061-.346 2.52 2.52 0 0 1 .215-.507l.241.322zm-3.318-.691l-.06-1.065.395.015.396-.015-.06 1.065a22.67 22.67 0 0 0 .067 2.074h-.805l.067-2.074h0zm.359 5.149h-.047a.75.75 0 0 1-.691-.457h1.428a.75.75 0 0 1-.69.457zm1.798-1.799c0 .416-.338.755-.754.755h-2.134c-.416 0-.754-.339-.754-.755v-.689h3.642v.689zm7.132-.971l-.621.088c-.119.017-.215.104-.244.221a2.45 2.45 0 0 1-.286.691c-.062.102-.056.232.017.329l.377.502-.395.395-.502-.377c-.096-.072-.226-.078-.329-.016a2.44 2.44 0 0 1-.69.286c-.116.029-.204.125-.221.244l-.088.622h-.558l-.088-.622c-.017-.119-.104-.215-.221-.244-.244-.06-.476-.156-.69-.286-.103-.062-.233-.056-.329.016l-.502.377-.395-.395.377-.502c.072-.096.078-.226.016-.329a2.46 2.46 0 0 1-.286-.691c-.029-.116-.125-.204-.244-.221l-.621-.088v-.559l.621-.088c.119-.017.215-.104.244-.221.059-.244.156-.476.286-.691.062-.102.056-.232-.016-.329l-.377-.502.395-.395.502.377c.096.072.226.079.329.017a2.44 2.44 0 0 1 .69-.286c.116-.029.204-.125.221-.244l.088-.622h.558l.088.622c.017.119.104.215.221.244a2.45 2.45 0 0 1 .69.286.29.29 0 0 0 .329-.017l.502-.377.395.395-.377.502c-.072.096-.079.226-.017.329a2.46 2.46 0 0 1 .286.691c.028.116.125.204.244.221l.621.088v.559zm-3.26-2.002c-.95 0-1.722.773-1.722 1.723 0 .162.131.294.294.294s.294-.131.294-.294c0-.626.509-1.136 1.135-1.136s1.135.51 1.135 1.136-.509 1.136-1.135 1.136A1.13 1.13 0 0 1 23.4 25c-.121-.108-.307-.096-.415.025s-.096.307.025.414a1.72 1.72 0 0 0 1.142.433c.95 0 1.722-.773 1.722-1.723s-.773-1.723-1.722-1.723h0zm-1.026-8.705h.391c.162 0 .294-.132.294-.293s-.131-.293-.294-.293h-.391c-.162 0-.294.131-.294.293s.131.293.294.293zm2.527.283c.097.059.189.126.275.2.129.112.332.088.432-.051.087-.121.066-.294-.046-.392a2.55 2.55 0 0 0-.356-.26c-.139-.084-.319-.04-.403.099s-.04.319.099.403h0zm-1.156-.283l.369.013c.155.01.296-.105.313-.261.018-.161-.098-.306-.259-.324-.141-.016-.282-.016-.423-.016-.162 0-.294.131-.294.293s.131.293.294.293h0zm.499 3.919a1.92 1.92 0 0 1-.339.033c-.162.002-.292.135-.29.297s.133.29.293.29h.004a2.54 2.54 0 0 0 .439-.043c.159-.03.264-.183.235-.342s-.182-.265-.342-.235zm1.039-.55a2.03 2.03 0 0 1-.26.22c-.12.085-.159.252-.087.382.084.151.286.197.426.097a2.57 2.57 0 0 0 .337-.285c.114-.115.114-.301-.002-.415s-.301-.114-.415.001h0zm.627-.336c.15.055.322-.025.377-.175a2.53 2.53 0 0 0 .115-.426c.028-.16-.077-.312-.237-.341s-.312.077-.341.237a1.98 1.98 0 0 1-.089.328c-.056.152.022.321.175.377h0zm-.226-1.871a1.91 1.91 0 0 1 .113.321c.041.159.21.255.368.209.149-.044.239-.204.201-.354a2.54 2.54 0 0 0-.146-.417c-.067-.148-.241-.213-.388-.147s-.213.241-.146.388h0zM9.387 20.111c-.152-.057-.321.018-.379.17a2.55 2.55 0 0 0-.121.425c-.03.159.074.313.233.344.019.004.037.005.056.005.138 0 .261-.098.288-.238.021-.111.053-.221.093-.327.058-.152-.018-.321-.17-.379h0zm.976 2.761a2 2 0 0 1-.273-.204c-.121-.108-.307-.097-.414.024s-.097.307.024.415a2.61 2.61 0 0 0 .353.264c.147.091.346.033.42-.123.064-.133.015-.298-.11-.375h0zm2.517.296h-.391c-.162 0-.293.131-.293.294s.131.294.293.294h.391c.162 0 .293-.131.293-.294s-.131-.294-.293-.294zm1.371 0h-.391c-.162 0-.293.131-.293.294s.132.294.293.294h.391c.162 0 .293-.131.293-.294s-.132-.294-.293-.294z"/><path d="M15.622 23.168h-.391c-.162 0-.293.131-.293.294s.132.294.293.294h.391c.162 0 .293-.131.293-.294s-.131-.294-.293-.294zm-6.028-1.184c-.045-.104-.082-.212-.109-.322-.038-.157-.197-.254-.355-.216s-.254.197-.216.355a2.56 2.56 0 0 0 .141.419c.068.154.257.221.406.142.134-.071.192-.238.132-.377h0zm1.918 1.184c-.119 0-.237 0-.355-.015-.161-.02-.307.095-.327.256s.095.307.255.327a3.38 3.38 0 0 0 .427.019c.162 0 .293-.131.293-.294s-.132-.293-.294-.293h0zm-1.698-3.302c.074 0 .148-.028.206-.084a1.93 1.93 0 0 1 .263-.217c.133-.092.167-.275.075-.408s-.275-.167-.408-.075c-.121.084-.235.178-.34.281-.183.18-.052.503.206.503h-.001zm1.248-.621a2.01 2.01 0 0 1 .339-.029c.162 0 .293-.131.293-.294s-.131-.294-.293-.294a2.58 2.58 0 0 0-.439.038c-.155.027-.264.178-.24.334s.18.272.34.244h0z"/></g><defs><clipPath id="A"><path fill="#fff" transform="translate(8 8)" d="M0 0h20v20H0z"/></clipPath></defs></svg>