<svg xmlns="http://www.w3.org/2000/svg" width="36" height="36" fill="none" xmlns:v="https://vecta.io/nano"><path stroke="#ededed" d="M.5.5h35v35H.5z"/><g clip-path="url(#A)" fill="#bc1d8d"><path d="M24.034 25.191l-.456.456.873.873 2.164-2.164-.456-.456-1.707 1.707-.417-.417h-.001zM11.967 9.707l-1.707 1.707-.417-.417-.456.456.873.873 2.164-2.164-.456-.456h-.001zm6.032 4.422c-1.423 0-2.581 1.158-2.581 2.581s1.158 2.581 2.581 2.581 2.581-1.158 2.581-2.581-1.158-2.581-2.581-2.581zm0 4.516a1.94 1.94 0 0 1-1.936-1.935 1.94 1.94 0 0 1 1.936-1.936 1.94 1.94 0 0 1 1.936 1.936 1.94 1.94 0 0 1-1.936 1.935zm.002-3.226a1.29 1.29 0 1 0 0 2.581 1.29 1.29 0 1 0 0-2.581zm0 1.936c-.356 0-.645-.29-.645-.645s.29-.645.645-.645.645.29.645.645-.29.645-.645.645zm3.539-2.201l.27-.564-1.691-1.692-.564.27-.152-.063-.208-.589h-2.392l-.208.589-.152.063-.564-.27-1.691 1.691.27.564-.063.152-.589.207v2.392l.589.208.063.152-.27.564 1.691 1.691.564-.27.152.063.208.589h2.392l.208-.589.152-.063.564.27 1.691-1.691-.27-.564.063-.152.589-.208v-2.392l-.589-.208-.063-.152zm.007 2.295l-.449.158-.05.148c-.042.123-.093.247-.154.37l-.069.14.206.43-1.046 1.046-.431-.206-.141.069a3.07 3.07 0 0 1-.369.154l-.148.05-.158.45h-1.479l-.158-.449-.148-.05a3.07 3.07 0 0 1-.369-.154l-.141-.069-.431.206-1.046-1.046.206-.43-.069-.14c-.06-.123-.112-.247-.154-.37l-.05-.148-.449-.159V15.97l.449-.158.05-.148c.042-.123.094-.247.154-.37l.069-.14-.206-.43 1.046-1.046.431.206.141-.069a3.18 3.18 0 0 1 .37-.154l.148-.051.158-.449h1.479l.159.449.148.051a3.18 3.18 0 0 1 .37.154l.141.069.431-.206 1.046 1.046-.206.43.069.14c.061.123.112.247.154.37l.05.148.449.158v1.479zM9.289 24.774h3.871v.645H9.289v-.645zm3.227 1.291h.645v.645h-.645v-.645zm-3.227 0h2.581v.645H9.289v-.645z"/><path d="M23.94 12.516H28V8h-1.936v.645h-1.29v.645h-1.29v2.77l-.988.988c-.192-.236-.397-.463-.626-.668a5.75 5.75 0 0 0-4.537-1.44c-2.631.294-4.773 2.414-5.094 5.04l-.035.407h-.655c-.178 0-.323-.145-.323-.323v-2.277a2.91 2.91 0 0 0 2.581-2.884A2.91 2.91 0 0 0 10.903 8 2.91 2.91 0 0 0 8 10.903c0 1.492 1.131 2.723 2.581 2.884v2.277a.97.97 0 0 0 .968.968h.658c.037.675.189 1.329.444 1.935h-1.425a.97.97 0 0 0-.968.968v3.548h-1.29a.97.97 0 0 0-.968.968v2.581a.97.97 0 0 0 .968.968h4.516a.97.97 0 0 0 .968-.968v-2.581a.97.97 0 0 0-.968-.968v-.569a.72.72 0 0 0-1.367-.323l-.446.892h-.769v-3.548c0-.178.144-.323.323-.323h1.742a5.79 5.79 0 0 0 1.999 2.048.97.97 0 0 0-.515.856c0 .446.305.819.716.93-.045.112-.071.233-.071.36 0 .446.305.819.716.93-.045.112-.071.233-.071.36 0 .42.271.775.645.908v.382c0 .889.723 1.613 1.613 1.613s1.613-.723 1.613-1.613v-.382c.375-.133.645-.488.645-.908 0-.127-.026-.248-.071-.36.411-.112.716-.484.716-.93 0-.128-.026-.248-.071-.36.411-.112.716-.484.716-.93a.97.97 0 0 0-.516-.856 5.8 5.8 0 0 0 2.764-4.628h.656c.178 0 .323.145.323.323v4.858c-1.449.161-2.581 1.392-2.581 2.884A2.91 2.91 0 0 0 25.096 28 2.91 2.91 0 0 0 28 25.097c0-1.492-1.132-2.723-2.581-2.884v-4.858a.97.97 0 0 0-.968-.968h-.662c-.056-1.006-.373-1.972-.911-2.81l1.061-1.061h0zm2.77-3.871h.645v3.226h-.645V8.645zm-.645.645v2.581h-.645V9.29h.645zm-1.935.645h.645v1.936h-.645V9.935zm-15.484.968a2.26 2.26 0 0 1 2.258-2.258 2.26 2.26 0 0 1 2.258 2.258 2.26 2.26 0 0 1-2.258 2.258 2.26 2.26 0 0 1-2.258-2.258zm3.425 13.226l.624-1.248c.032-.064.144-.037.144.033v1.214h.645c.178 0 .322.144.322.323v2.581c0 .178-.144.323-.322.323H8.968c-.178 0-.323-.144-.323-.323v-2.581c0-.178.144-.323.323-.323h3.102zm15.285.968a2.26 2.26 0 0 1-2.258 2.258 2.26 2.26 0 0 1-2.258-2.258 2.26 2.26 0 0 1 2.258-2.258 2.26 2.26 0 0 1 2.258 2.258zM18 27.355a.97.97 0 0 1-.968-.968v-.323h1.935v.323a.97.97 0 0 1-.968.968zm1.29-1.935H16.71c-.178 0-.323-.144-.323-.323s.144-.323.323-.323h2.581c.178 0 .323.144.323.323s-.144.323-.323.323zm.645-1.29h-3.871c-.178 0-.323-.144-.323-.323s.144-.323.323-.323h3.871c.178 0 .323.144.323.323s-.144.323-.323.323zm.493-2.866l-.17.091v.84h.323c.178 0 .323.144.323.323s-.144.323-.323.323h-5.161c-.178 0-.323-.144-.323-.323s.144-.323.323-.323h.322v-.84l-.17-.091a5.15 5.15 0 0 1-2.693-5.205 5.18 5.18 0 0 1 4.525-4.477c1.496-.166 2.927.288 4.035 1.279a5.17 5.17 0 0 1 1.722 3.848c0 1.908-1.047 3.652-2.733 4.554z"/></g><defs><clipPath id="A"><path fill="#fff" transform="translate(8 8)" d="M0 0h20v20H0z"/></clipPath></defs></svg>