<svg xmlns="http://www.w3.org/2000/svg" xmlns:xlink="http://www.w3.org/1999/xlink" width="58" height="58" fill="none" xmlns:v="https://vecta.io/nano"><g clip-path="url(#A)" fill-rule="evenodd" fill="#515151"><path d="M42.362 40.06H15.634c-.904 0-1.633-.733-1.633-1.628V20.256c0-.895.734-1.628 1.633-1.628h1.751a.42.42 0 1 1 0 .846h-1.751c-.432 0-.782.353-.782.781v18.177a.78.78 0 0 0 .782.781h26.729c.428 0 .782-.349.782-.781V20.256c0-.428-.354-.781-.782-.781h-1.751a.42.42 0 1 1 0-.846h1.751a1.63 1.63 0 0 1 1.629 1.628v18.177c.008.903-.725 1.628-1.629 1.628v-.001z"/><path d="M32.737 44h-7.46c-.21 0-.393-.157-.415-.371s.105-.41.314-.467c1.022-.266 1.118-2.675 1.07-3.499a.43.43 0 0 1 .401-.45.43.43 0 0 1 .45.401c.018.297.101 2.33-.642 3.534h5.101c-.756-1.204-.663-3.237-.647-3.534a.43.43 0 0 1 .45-.401c.236.013.411.214.397.45-.048.825.048 3.233 1.092 3.499a.43.43 0 0 1 .314.467.44.44 0 0 1-.428.371h.001z"/><path d="M31.516 42.272h-5.022a.423.423 0 1 1 0-.846h5.022a.42.42 0 0 1 .423.423c0 .235-.197.423-.423.423zm12.056-6.379H14.428c-.24 0-.428-.188-.428-.423s.188-.423.428-.423h29.144c.24 0 .428.188.428.423a.43.43 0 0 1-.428.423zm-13.627 2.086h-1.904a.423.423 0 1 1 0-.846h1.904a.423.423 0 1 1 0 .846zm9.735-4.036H18.31a1.35 1.35 0 0 1-1.35-1.348V15.614c0-1.444 1.175-2.614 2.611-2.614h18.85a2.62 2.62 0 0 1 2.612 2.614v16.977a1.35 1.35 0 0 1-1.354 1.352zM19.572 13.842c-.974 0-1.764.794-1.764 1.763v16.986c0 .275.227.502.502.502h21.37c.28 0 .507-.227.507-.502V15.605a1.77 1.77 0 0 0-1.765-1.763h-18.85 0z"/><path d="M40.614 18.022h-23.23a.423.423 0 1 1 0-.846h23.23a.42.42 0 0 1 .423.423c0 .235-.192.423-.423.423zm-20.688-1.327c-.655 0-1.183-.532-1.183-1.186a1.19 1.19 0 0 1 1.183-1.187 1.19 1.19 0 0 1 1.188 1.187 1.19 1.19 0 0 1-1.188 1.186zm0-1.527a.34.34 0 0 0-.336.341.34.34 0 0 0 .336.34.34.34 0 0 0 .336-.34c0-.188-.149-.341-.336-.341zm2.898 1.527a1.19 1.19 0 0 1-1.188-1.186 1.19 1.19 0 0 1 1.188-1.187c.65 0 1.192.532 1.192 1.187a1.19 1.19 0 0 1-1.192 1.186zm0-1.527c-.188 0-.336.153-.336.341s.149.34.336.34a.34.34 0 0 0 .341-.34c0-.188-.157-.341-.341-.341zm2.907 1.527a1.19 1.19 0 0 1-1.188-1.186 1.19 1.19 0 0 1 1.188-1.187 1.19 1.19 0 0 1 1.188 1.187 1.19 1.19 0 0 1-1.188 1.186zm0-1.527c-.188 0-.336.153-.336.341s.149.34.336.34a.341.341 0 1 0 0-.681zm-3.255 9.643c-.026 0-.057 0-.079-.004-.232-.044-.384-.266-.332-.497l.852-4.433c.044-.232.266-.384.498-.331a.41.41 0 0 1 .332.493l-.852 4.433a.43.43 0 0 1-.419.341v-.001zm-1.205-.428c-.109 0-.218-.044-.306-.127l-1.782-1.789a.43.43 0 0 1 0-.598l1.782-1.78c.166-.166.437-.166.603 0s.161.432 0 .598l-1.485 1.483 1.485 1.488c.161.166.161.436 0 .602-.079.079-.188.122-.297.122zm3.268 0c-.109 0-.218-.044-.297-.122-.166-.166-.166-.436 0-.602l1.485-1.488-1.485-1.483a.423.423 0 1 1 .598-.598l1.782 1.78a.42.42 0 0 1 0 .598l-1.782 1.789c-.087.083-.192.127-.301.127h.001zm7.415-1.671h-4.027a.42.42 0 0 1-.423-.428c0-.24.188-.423.423-.423h4.027a.42.42 0 0 1 .423.423c0 .235-.188.428-.423.428zm1.331 2.099h-5.354a.423.423 0 1 1 0-.846h5.354a.423.423 0 1 1 0 .846zm5.223 0h-3.712c-.24 0-.428-.188-.428-.423v-4.433a.42.42 0 0 1 .428-.423h3.712c.24 0 .428.188.428.423v4.433c0 .236-.196.423-.428.423zm-3.297-.847h2.869v-3.586h-2.87v3.586zm-6.298 7.623h-8.966a.42.42 0 0 1-.423-.423v-4.433a.42.42 0 0 1 .423-.423h8.966a.42.42 0 0 1 .423.423v4.433a.42.42 0 0 1-.423.423h-.001zm-8.542-.847h8.119v-3.586h-8.12v3.586z"/><use xlink:href="#B"/><path d="M38.51 29.371h-6.844a.423.423 0 1 1 0-.846h6.844c.24 0 .428.188.428.423a.43.43 0 0 1-.428.423zm0 2.211h-6.844a.423.423 0 1 1 0-.846h6.844c.24 0 .428.188.428.423a.43.43 0 0 1-.428.423z"/></g><defs><clipPath id="A"><path fill="#fff" transform="translate(14 13)" d="M0 0h30v31H0z"/></clipPath><path id="B" d="M38.51 27.154h-6.844a.42.42 0 1 1 0-.846h6.844c.24 0 .428.188.428.423s-.197.423-.428.423z"/></defs></svg>