<svg xmlns="http://www.w3.org/2000/svg" xmlns:xlink="http://www.w3.org/1999/xlink" width="36" height="36" fill="none" xmlns:v="https://vecta.io/nano"><path stroke="#ededed" d="M.5.5h35v35H.5z"/><g clip-path="url(#A)" fill="#bc1d8d"><path d="M17.12 13.602c0-.58-.45-1.051-1.003-1.051s-1.003.472-1.003 1.051c0 .477.305.881.722 1.009v1.584c-.417.128-.722.532-.722 1.009s.305.881.722 1.009v1.584c-.417.128-.722.532-.722 1.009 0 .58.45 1.051 1.003 1.051s1.003-.471 1.003-1.051c0-.477-.305-.881-.722-1.009v-1.584c.417-.128.722-.532.722-1.009s-.305-.881-.722-1.009V14.61c.417-.128.722-.532.722-1.009zm-.562 7.204c0 .257-.198.465-.441.465s-.441-.209-.441-.465.198-.465.441-.465.441.209.441.465zm0-3.602c0 .257-.198.465-.441.465s-.441-.209-.441-.465.198-.465.441-.465.441.209.441.465zm-.441-3.137c-.243 0-.441-.209-.441-.465s.198-.465.441-.465.441.209.441.465-.198.465-.441.465zm5.056 7.015h-2.887c-.155 0-.281.131-.281.293s.126.293.281.293h2.887c.155 0 .281-.131.281-.293s-.126-.293-.281-.293z"/><use xlink:href="#B"/><use xlink:href="#C"/><path d="M25.997 12.877v-2.309c0-.789-.612-1.431-1.364-1.431h-3.235v-.086c0-.58-.45-1.051-1.003-1.051h-2.707c-.553 0-1.003.471-1.003 1.051v.086h-4.32c-.752 0-1.364.642-1.364 1.431v3.792c0 .371.288.672.642.672h.441v11.917c0 .58.45 1.051 1.003 1.051H23.77c.553 0 1.003-.471 1.003-1.051v-.541h.224c.553 0 1.003-.471 1.003-1.051V12.919a.31.31 0 0 0-.003-.043zm-8.75-3.825c0-.257.198-.465.441-.465h2.707c.243 0 .441.209.441.465v.086h-3.588v-.086zm-.487.672h4.563v.086c0 .466-.36.845-.802.845h-2.96c-.442 0-.802-.379-.802-.845v-.086h0zm8.677 15.633c0 .257-.198.465-.441.465H18.5c-.155 0-.281.131-.281.293s.126.293.281.293h5.71v.541c0 .257-.198.465-.441.465H13.086c-.243 0-.441-.209-.441-.465V10.543c0-.162-.126-.293-.281-.293s-.281.131-.281.293v3.903h-.441c-.044 0-.079-.039-.079-.086v-3.792c0-.466.36-.845.802-.845s.802.379.802.845l.003 14.788c0 .58.45 1.051 1.003 1.051h.873c.327.253.73.403 1.166.403 1.085 0 1.968-.926 1.968-2.064 0-.457-.143-.897-.406-1.256l.387-.63a.3.3 0 0 0-.085-.405c-.131-.087-.305-.048-.389.089l-1.493 2.427-.548-.714c-.097-.126-.274-.147-.395-.046s-.141.286-.044.412l.725.944c.067.096.171.153.28.154h.002c.113 0 .221-.061.288-.163l.939-1.527c.114.217.175.462.175.716 0 .815-.63 1.479-1.405 1.479s-1.405-.663-1.405-1.479.63-1.479 1.405-1.479a1.39 1.39 0 0 1 .25.023c.153.029.299-.077.327-.236s-.074-.312-.227-.341a1.92 1.92 0 0 0-.35-.033c-1.085 0-1.968.926-1.968 2.065a2.13 2.13 0 0 0 .289 1.076h-.36c-.243 0-.441-.209-.441-.465l-.003-14.788a1.47 1.47 0 0 0-.264-.845h2.733v.086c0 .789.612 1.43 1.364 1.43h2.959c.752 0 1.364-.642 1.364-1.43v-.086h2.748c.442 0 .802.379.802.845v2.351a.31.31 0 0 0 .003.043v12.395h-.001zm-1.738-5.413h-5.414c-.155 0-.281.131-.281.293s.126.293.281.293h5.414c.155 0 .281-.131.281-.293s-.126-.293-.281-.293zm-5.414-1.878h2.887c.155 0 .281-.131.281-.293s-.126-.293-.281-.293h-2.887c-.155 0-.281.131-.281.293s.126.293.281.293zm5.414-1.724h-5.414c-.155 0-.281.131-.281.293s.126.293.281.293h5.414c.155 0 .281-.131.281-.293s-.126-.293-.281-.293z"/></g><defs><clipPath id="A"><path fill="#fff" transform="translate(11 8)" d="M0 0h15v20H0z"/></clipPath><path id="B" d="M23.699 12.74h-5.414c-.155 0-.281.131-.281.293s.126.293.281.293h5.414c.155 0 .281-.131.281-.293s-.126-.293-.281-.293z"/><path id="C" d="M18.285 14.463h2.887c.155 0 .281-.131.281-.293s-.126-.293-.281-.293h-2.887c-.155 0-.281.131-.281.293s.126.293.281.293z"/></defs></svg>