<svg xmlns="http://www.w3.org/2000/svg" width="36" height="36" fill="none" xmlns:v="https://vecta.io/nano"><path stroke="#ededed" d="M.5.5h35v35H.5z"/><g clip-path="url(#A)" fill="#bc1d8d"><path d="M10.729 20.822h3.996v.33c0 .498.406.904.904.904h1.687c.162 0 .293-.131.293-.293s-.131-.293-.293-.293h-1.687a.32.32 0 0 1-.318-.318v-1.937l.003-.121.002-.033.009-.114.003-.03.011-.086.007-.047.015-.086.012-.06.016-.068.012-.05.025-.088.013-.041.028-.085.012-.032.095-.227c.411-.867 1.257-1.485 2.247-1.553l.145-.006.107.001.074.003.048.003a2.7 2.7 0 0 1 1.628.708l.032.03.048.046.064.067.037.04.04.046.067.081.024.031.046.063.15.231c.161.279.27.584.323.899l.012.076.006.05.007.069.007.091.002.036.003.117v1.977a.32.32 0 0 1-.318.318h-1.687c-.162 0-.293.131-.293.293s.131.293.293.293h1.687c.498 0 .904-.405.904-.904v-.331h3.996c.46 0 .835-.375.835-.836v-1.754a2.92 2.92 0 0 0-.877-2.091c-.268-.264-.577-.47-.911-.613a2.07 2.07 0 0 0 .743-.882c.066-.148-.001-.321-.149-.387s-.321.001-.387.149a1.49 1.49 0 0 1-1.355.884h-.004a1.49 1.49 0 0 1-1.487-1.487l.003-.087.002-.022.006-.064.003-.025.01-.062.004-.023.016-.071.026-.093.007-.019.02-.057.013-.032.018-.041.017-.037.015-.031a1.47 1.47 0 0 1 .094-.162l.042-.059c.074-.099.156-.184.246-.259a1.48 1.48 0 0 1 2.332.607c.059.151.229.225.379.167s.225-.228.167-.379a2.06 2.06 0 0 0-2.908-1.076 2.89 2.89 0 0 0-.449-.245 2.04 2.04 0 0 0 .899-1.691c0-1.125-.916-2.041-2.041-2.041s-2.041.916-2.041 2.041a2.04 2.04 0 0 0 .902 1.693c-.203.088-.395.2-.574.334a2.28 2.28 0 0 0-.886-.178 2.26 2.26 0 0 0-.866.17 2.88 2.88 0 0 0-.569-.327 2.04 2.04 0 0 0 .901-1.692c0-1.125-.916-2.041-2.041-2.041s-2.041.916-2.041 2.041a2.04 2.04 0 0 0 .9 1.692 2.87 2.87 0 0 0-.459.253 2.06 2.06 0 0 0-.993-.254c-1.143 0-2.073.93-2.073 2.073 0 .719.368 1.353.925 1.725a2.99 2.99 0 0 0-1.792 2.736v1.72c0 .461.375.836.836.836h-.002zm14.792-2.59v1.754a.25.25 0 0 1-.25.25h-3.996v-1.06l-.003-.143-.002-.038-.009-.126-.007-.063-.007-.061c-.051-.387-.17-.758-.351-1.099l.013-.047.016-.054.014-.044.017-.052.016-.044.019-.05.018-.044.02-.047.02-.043.022-.046.022-.042.024-.044.024-.042.025-.043.026-.041.027-.041.027-.04.028-.04.029-.039.029-.038.03-.037.031-.037.032-.036.032-.035.033-.035.034-.034.035-.034.035-.032.036-.032.036-.031.037-.03.037-.029.038-.029.039-.028.04-.027.039-.026.04-.026.041-.025.041-.024.042-.023.042-.022.043-.021.043-.02.045-.02.043-.018.046-.018.043-.017.048-.016.044-.015.049-.015.044-.013.051-.013.044-.011.053-.011.043-.009.055-.009.042-.007.059-.007.04-.005.066-.005.033-.003.1-.004h.034.025a2.34 2.34 0 0 1 1.623.68c.453.447.703 1.042.703 1.673h-.001zm-6.377-8.191a1.46 1.46 0 0 1 1.455-1.455 1.46 1.46 0 0 1 1.455 1.455 1.46 1.46 0 0 1-1.455 1.455 1.46 1.46 0 0 1-1.455-1.455zm1.424 2.041h.029a2.26 2.26 0 0 1 1.088.274 2.08 2.08 0 0 0-.386.551l-.037.082-.034.084-.011.028-.02.058-.013.04-.014.049-.014.05-.01.042-.013.058-.007.038-.011.063-.005.037-.008.064-.003.043-.004.06-.002.059-.001.044.004.123.003.035.008.088.005.039.014.087.006.032.026.117.033.113.011.032.029.079.014.035.035.08.012.027.053.104.059.1.019.029.046.068.021.03.053.07.017.022.075.088.08.082.025.024.06.055.028.024.07.057.02.016.095.067c-.024.014-.052.026-.079.039l-.117.058-.031.017-.071.04-.038.022-.063.039-.038.025-.061.041-.036.025-.064.047-.03.023-.091.073-.114.101-.031.03-.084.084-.026.027-.1.112-.019.023-.077.097-.026.036-.075.105-.013.019-.08.128-.02.035-.056.102-.02.037-.065.136a.87.87 0 0 1-.049-.052l-.057-.062-.053-.055-.031-.032-.052-.049-.037-.035a3.27 3.27 0 0 0-.989-.627l.06-.039.018-.012.063-.045.023-.017.072-.056.02-.017.057-.049.02-.018.066-.063.02-.02.052-.055.016-.017.06-.069.018-.022.05-.064.064-.089.016-.024.05-.077.05-.087.013-.024.043-.084.042-.092.01-.024.035-.089.007-.02.027-.079.007-.021.027-.094.006-.022.02-.084.021-.116.003-.023.012-.093.009-.114.001-.025.003-.105-.003-.125-.003-.043-.007-.081-.007-.052-.01-.068-.011-.059-.011-.057-.015-.066-.012-.045-.021-.076-.009-.027c-.136-.427-.394-.806-.746-1.089a2.27 2.27 0 0 1 1.125-.316l-.001-.001zm-1.765.594l.085.048.036.023.046.03.048.034.023.017c.21.161.383.371.5.611.038.079.063.143.085.208l.016.05.012.045.017.07.007.029.017.1.004.03.008.079.002.031.003.107c0 .944-.768 1.712-1.712 1.712-.768 0-1.419-.507-1.636-1.204l-.019-.067a1.73 1.73 0 0 1-.058-.441l.003-.107.003-.035.007-.073.005-.037.016-.094.012-.05.011-.045.017-.061.007-.022a1.72 1.72 0 0 1 .598-.842l.016-.012.055-.039.064-.041.04-.024.066-.036a1.7 1.7 0 0 1 .791-.195 1.71 1.71 0 0 1 .802.2v-.001zm-3.026.928l-.025.105-.008.038-.013.075-.008.054-.008.065-.006.07-.004.053-.003.111.003.12.001.022.008.104.013.104.003.021.018.1.024.103.005.02.027.094.007.021.027.08.042.107.01.024.034.076.05.099.014.025.043.075.056.088.017.025.053.074.014.018.046.059.02.024.059.068.019.021.049.051.021.022.064.061.023.021.053.046.021.018.07.055.026.019.06.043.019.013.06.039c-.482.195-.913.506-1.258.913a2.96 2.96 0 0 0-1.539-1.52l.096-.069.024-.019.066-.053.03-.025.058-.053.027-.026.066-.068.088-.1.019-.025.051-.067.023-.032.045-.066.02-.031.051-.088.059-.114.014-.03.033-.077.014-.037.028-.077.012-.035.03-.105.028-.123.006-.035.013-.084.005-.041.008-.084.003-.037.004-.122-.003-.104-.004-.054-.003-.048-.009-.069-.004-.031-.013-.075-.004-.023-.017-.077-.005-.021-.02-.075-.006-.022-.023-.069-.009-.027-.023-.062-.013-.033-.023-.053-.019-.041-.021-.042-.026-.05-.017-.031-.034-.06-.012-.02-.044-.068-.06-.084a2.13 2.13 0 0 0-.169-.2 2.25 2.25 0 0 1 1.069-.284c.415-.005.819.102 1.175.307a2.28 2.28 0 0 0-.792 1.216l-.001-.001zm-1.807-3.563a1.46 1.46 0 0 1 1.455-1.455 1.46 1.46 0 0 1 1.455 1.455 1.46 1.46 0 0 1-1.455 1.455 1.46 1.46 0 0 1-1.455-1.455zm-2.624 3.764a1.49 1.49 0 0 1 1.487-1.487 1.48 1.48 0 0 1 .876.286l.019.014.043.034.017.014.044.038.099.099.039.045.016.02.031.039.02.027.026.037.03.046.019.032.033.058.011.022.027.055.009.02.027.064a1.44 1.44 0 0 1 .057.178l.018.082.013.083.003.024.006.063.002.023.003.086-.002.076-.003.034-.003.041-.005.036-.005.039-.005.031-.007.043-.006.025-.011.047-.02.07-.007.02-.017.049-.007.019-.019.049-.008.019-.021.047-.033.064-.036.062-.039.06-.041.058-.044.056-.047.054-.049.052-.052.049-.054.046-.056.044-.058.041-.06.039-.018.01-.045.026-.019.009-.045.023-.02.009-.045.021-.022.009-.045.018-.023.008-.045.016-.026.007-.045.012-.028.007-.044.01-.03.005-.043.008-.032.004-.043.005-.034.003-.042.003-.036.001-.041.001a1.49 1.49 0 0 1-1.489-1.487l.002-.001zm-.867 4.461c0-1.3 1.042-2.371 2.322-2.388h.025a2.37 2.37 0 0 1 2.148 1.376l.036.084.034.085.009.024.021.064.011.034.016.057.012.042-.189.439-.05.148-.009.029-.032.113-.009.033-.029.126-.01.049-.022.126-.005.037-.014.111-.004.04-.011.138-.002.033-.004.149v1.021h-3.996a.25.25 0 0 1-.25-.25v-1.719h0zm9.396 6.21l-.775-.112c-.045-.007-.084-.035-.104-.076l-.346-.702a.72.72 0 0 0-.65-.404.72.72 0 0 0-.65.404l-.347.702c-.02.041-.059.069-.104.076l-.775.112a.72.72 0 0 0-.402 1.236l.56.546a.14.14 0 0 1 .04.123l-.132.771a.72.72 0 0 0 1.051.764l.693-.364a.14.14 0 0 1 .129 0l.693.364a.73.73 0 0 0 .338.084.72.72 0 0 0 .713-.848l-.132-.771c-.008-.045.007-.091.04-.122l.561-.547a.72.72 0 0 0-.402-1.235h0zm-.007.816l-.561.546a.72.72 0 0 0-.208.641l.132.771c.013.076-.034.12-.055.135s-.077.047-.146.011l-.693-.364c-.105-.055-.221-.083-.337-.083s-.232.028-.337.083l-.693.364c-.069.036-.125.005-.146-.011s-.068-.059-.055-.135l.132-.772c.04-.235-.037-.475-.208-.641l-.561-.547c-.055-.054-.043-.117-.035-.142s.035-.083.112-.094l.775-.113c.236-.034.44-.183.545-.396l.346-.702c.034-.07.098-.077.124-.077s.09.007.124.077l.346.702a.72.72 0 0 0 .545.396l.775.113c.077.011.104.069.112.094s.021.088-.035.142h0zm4.249-1.708l-.571-.083c-.008-.001-.015-.006-.019-.014l-.256-.518a.61.61 0 0 0-.548-.341c-.234 0-.445.13-.548.341l-.255.518c-.003.007-.011.012-.019.014l-.571.083c-.232.034-.421.193-.493.416a.61.61 0 0 0 .155.627l.414.403c.006.006.009.014.007.022l-.098.569a.61.61 0 0 0 .602.715c.097 0 .195-.023.285-.071l.511-.269c.008-.004.016-.004.023 0l.511.269a.61.61 0 0 0 .887-.644l-.098-.569c-.002-.008.001-.017.008-.023l.414-.403a.61.61 0 0 0 .155-.627c-.072-.223-.261-.382-.493-.416h-.001zm-.07.623l-.414.403a.61.61 0 0 0-.176.541l.098.569c.001.006.003.016-.01.025s-.021.005-.026.002l-.511-.269a.61.61 0 0 0-.569 0l-.511.269c-.005.003-.014.007-.027-.002s-.011-.019-.01-.025l.098-.569a.61.61 0 0 0-.176-.541l-.414-.403c-.004-.004-.011-.011-.006-.026s.014-.016.02-.017l.571-.083a.61.61 0 0 0 .46-.334l.255-.518c.003-.005.007-.014.023-.014s.02.009.023.014l.256.518a.61.61 0 0 0 .46.334l.571.083c.006.001.016.002.02.017s-.002.022-.006.026h.001zm3.924-1.74c-.066-.203-.238-.348-.45-.379l-.459-.067-.205-.417c-.095-.192-.286-.31-.5-.31s-.405.119-.5.31l-.205.417-.459.067c-.211.031-.384.176-.45.379s-.012.422.141.571l.332.324-.079.458c-.036.21.049.419.221.545.098.071.212.107.327.107a.56.56 0 0 0 .26-.064l.411-.216.411.216c.189.1.414.083.587-.042s.258-.334.222-.545l-.079-.458.332-.324c.153-.149.207-.368.141-.571h0zm-.893.486a.56.56 0 0 0-.16.493l.071.415-.373-.196a.56.56 0 0 0-.519 0l-.373.196.071-.415c.031-.181-.029-.365-.16-.493l-.301-.294.417-.061a.56.56 0 0 0 .42-.305l.186-.378.186.378c.081.164.238.279.419.305l.417.061-.302.294h.001zm-12.407.631l-.572-.083c-.008-.001-.015-.006-.019-.014l-.255-.518a.61.61 0 0 0-.548-.341c-.234 0-.445.13-.548.341l-.255.518c-.004.007-.011.012-.019.014l-.572.083c-.232.034-.421.193-.493.416a.61.61 0 0 0 .155.627l.414.403c.006.006.009.014.008.022l-.098.569a.61.61 0 0 0 .243.598c.19.138.436.155.644.046l.511-.269c.008-.004.016-.004.024 0l.511.269c.09.047.188.071.285.071a.61.61 0 0 0 .359-.117c.19-.138.283-.367.243-.598l-.098-.569c-.002-.008.001-.016.008-.022l.414-.403a.61.61 0 0 0 .155-.627c-.072-.223-.261-.382-.493-.416h0zm-.07.623l-.414.403a.61.61 0 0 0-.176.541l.098.569c.001.006.003.016-.01.025s-.021.005-.027.002l-.511-.269a.61.61 0 0 0-.569 0l-.511.269c-.005.003-.014.007-.027-.002s-.011-.019-.01-.025l.098-.569a.61.61 0 0 0-.176-.541l-.414-.403c-.004-.004-.011-.011-.006-.026s.014-.016.02-.017l.572-.083a.61.61 0 0 0 .46-.334l.255-.518c.003-.005.007-.014.023-.014s.02.009.023.014l.255.518a.61.61 0 0 0 .46.334l.571.083c.006.001.016.002.02.017s-.002.022-.006.026h0zm-3.794-2.119l-.46-.067-.206-.416c-.095-.191-.286-.311-.5-.311s-.405.119-.5.311l-.205.416-.46.067c-.211.031-.384.176-.45.379s-.012.422.141.571l.332.324-.079.458c-.036.21.049.419.221.545.098.071.212.107.327.107a.56.56 0 0 0 .26-.064l.411-.216.411.216c.189.1.414.083.587-.042s.258-.334.222-.545l-.079-.458.333-.324c.153-.149.207-.368.141-.571s-.238-.348-.45-.379h.001zm-.444.866a.56.56 0 0 0-.16.493l.071.415-.373-.196a.55.55 0 0 0-.518 0l-.373.196.071-.415c.031-.181-.029-.365-.16-.493l-.302-.294.417-.061a.56.56 0 0 0 .42-.305l.186-.378.186.378c.081.164.238.279.42.305l.417.061-.302.294h0z"/></g><defs><clipPath id="A"><path fill="#fff" transform="translate(8 8)" d="M0 0h20v20H0z"/></clipPath></defs></svg>