<svg xmlns="http://www.w3.org/2000/svg" width="58" height="58" fill="none" xmlns:v="https://vecta.io/nano"><g clip-path="url(#A)" fill="#515151"><path d="M16.553 39.45h4.874c.404 0 .733-.329.733-.732v-1.603a.44.44 0 0 0-.44-.44.44.44 0 0 0-.439.44v1.457H16.7V29.44h1.014a1.35 1.35 0 0 0 2.552 0h1.014v5.624a.44.44 0 0 0 .439.439.44.44 0 0 0 .439-.439v-5.771c0-.404-.329-.732-.732-.732h-1.271c-.335 0-.627.229-.71.556a.47.47 0 0 1-.912 0c-.083-.327-.376-.556-.71-.556h-1.271c-.404 0-.732.329-.732.732v9.424c0 .404.329.732.732.732zM44 32.996v-9.811c0-1.05-.854-1.904-1.904-1.904h-7.734l.113-.056c.262-.131.425-.395.425-.688v-1.273c0-.293-.163-.557-.425-.688l-.698-.349a5 5 0 0 0-.216-.52l.247-.741c.093-.278.022-.58-.186-.787l-.9-.9c-.207-.207-.509-.279-.787-.186l-.741.247a5.37 5.37 0 0 0-.52-.216l-.349-.698c-.131-.262-.395-.425-.688-.425h-1.273c-.293 0-.557.163-.688.425l-.349.698c-.177.062-.352.134-.52.216l-.741-.247c-.278-.093-.58-.022-.787.186l-.9.9c-.207.207-.278.509-.186.787l.247.741a5.13 5.13 0 0 0-.216.52l-.698.349c-.262.131-.425.395-.425.688v1.273c0 .293.163.557.425.688l.698.349c.062.177.134.352.216.52l-.247.741a.79.79 0 0 0-.04.266h-6.428c-1.05 0-1.904.854-1.904 1.904v1.738a1.91 1.91 0 0 0-1.82 1.902v10.721a1.89 1.89 0 0 0 .401 1.167.88.88 0 0 0-.401.737v.826c0 1.05.854 1.904 1.904 1.904h26.191c1.05 0 1.904-.854 1.904-1.904v-.826a.88.88 0 0 0-.879-.879h-.941v-5.494c1.011-.044 1.82-.88 1.82-1.902h0zm-.879-9.811v9.811c0 .565-.46 1.025-1.025 1.025H28.645c-.565 0-1.025-.46-1.025-1.025v-9.811c0-.566.46-1.025 1.025-1.025h4.599 8.852c.565 0 1.025.46 1.025 1.025h-.001zM28.645 21.28a1.9 1.9 0 0 0-.551.081l-1.13-1.13a.471.471 0 1 1 .666-.666l.643.643a.44.44 0 0 0 .311.129c.117 0 .229-.046.311-.129l1.287-1.287c.089-.089.207-.138.333-.138a.47.47 0 0 1 .333.803l-1.692 1.692h-.511 0zm-3.597 1.768l.24-.719a.76.76 0 0 0-.039-.581 4.17 4.17 0 0 1-.208-.502.76.76 0 0 0-.383-.438l-.678-.339v-1.137l.678-.339c.182-.091.318-.247.384-.438a4.08 4.08 0 0 1 .208-.502.76.76 0 0 0 .039-.582l-.24-.72.804-.804.72.24a.76.76 0 0 0 .581-.039 4.16 4.16 0 0 1 .502-.208c.192-.065.347-.201.439-.383l.339-.678h1.137l.339.678a.76.76 0 0 0 .438.383 4.17 4.17 0 0 1 .502.208.76.76 0 0 0 .582.039l.72-.24.804.804-.24.72a.76.76 0 0 0 .039.581 4.16 4.16 0 0 1 .208.502.76.76 0 0 0 .383.438l.678.339v1.137l-.678.339a.76.76 0 0 0-.383.438l-.012.035H30.4l1.07-1.07a1.35 1.35 0 0 0 0-1.908 1.34 1.34 0 0 0-1.909 0l-.976.976-.333-.333a1.35 1.35 0 0 0-1.908 0 1.35 1.35 0 0 0 0 1.908l.971.971a1.9 1.9 0 0 0-.571 1.276h-1.642l-.052-.052h-.001zm-7.324.931h7.193 1.823v.941h-2.824a.44.44 0 0 0-.44.439.44.44 0 0 0 .44.439h2.824v7.196c0 1.05.854 1.904 1.904 1.904H39.48v3.672H23.979v-9.926c0-1.05-.854-1.904-1.904-1.904h-3.556v-.941h3.347a.44.44 0 0 0 .439-.439.44.44 0 0 0-.439-.439H18.08a.44.44 0 0 0-.439.439v1.38H16.7v-1.736c0-.565.46-1.025 1.025-1.025h0zm-2.845 4.666c0-.565.46-1.025 1.025-1.025h6.171c.565 0 1.025.46 1.025 1.025v10.721c0 .565-.46 1.025-1.025 1.025h-6.171c-.565 0-1.025-.46-1.025-1.025V28.645zm28.242 13.451c0 .565-.46 1.025-1.025 1.025H15.904c-.565 0-1.025-.46-1.025-1.025v-.826h10.299l.352.352a1.89 1.89 0 0 0 1.346.558h4.247a1.89 1.89 0 0 0 1.347-.558l.352-.352h10.299v.826zM32.64 40.391c-.117 0-.229.046-.31.129l-.481.481a1.02 1.02 0 0 1-.725.3h-4.247a1.02 1.02 0 0 1-.725-.3l-.481-.481a.44.44 0 0 0-.311-.129h-1.682a1.89 1.89 0 0 0 .299-.941H39.92a.44.44 0 0 0 .44-.439V34.9h.941v5.491H32.64zM29.002 23.1a.44.44 0 0 0-.439.439v9.1a.44.44 0 0 0 .439.439h7.193a.44.44 0 0 0 .44-.439.44.44 0 0 0-.44-.439h-6.753v-8.221h10.042V32.2h-1.237a.44.44 0 0 0-.439.439.44.44 0 0 0 .439.439h1.677a.44.44 0 0 0 .439-.439v-9.1a.44.44 0 0 0-.439-.439H29.002zm12.738 6.339a.44.44 0 0 0 .44-.439v-1.82a.44.44 0 0 0-.439-.439.44.44 0 0 0-.439.439V29a.44.44 0 0 0 .439.439zm-6.283-2.531l-1.431 1.431-.56-.56a.44.44 0 0 0-.622 0 .44.44 0 0 0 0 .622l.871.871a.44.44 0 0 0 .31.129c.113 0 .225-.043.311-.129l1.742-1.742a.44.44 0 0 0 0-.622.44.44 0 0 0-.622 0l.001-.001zm-15.867 6.18l-.903.903-.296-.296a.44.44 0 0 0-.622 0 .44.44 0 0 0 0 .622l.606.606a.44.44 0 0 0 .311.129c.113 0 .225-.043.311-.129l1.213-1.213a.44.44 0 0 0 0-.622.44.44 0 0 0-.622 0h.001z"/></g><defs><clipPath id="A"><path fill="#fff" transform="translate(14 14)" d="M0 0h30v30H0z"/></clipPath></defs></svg>