<svg width="24" height="28" viewBox="0 0 24 28" fill="none" xmlns="http://www.w3.org/2000/svg">
<rect width="24" height="28" fill="#1E1E1E"/>
<g id="Group 638">
<rect id="Rectangle 1" x="-345" y="-913" width="1728" height="1140" fill="white"/>
<g id="Group 637">
<g id="Group 636">
<g id="Group 632">
<g id="Group 634">
<rect id="Rectangle 10" x="-152" y="-11" width="494" height="50" rx="4" fill="#F6F6F6"/>
<g id="Group 630">
<path id="Vector" d="M19.6552 26.8766C18.1309 28.3542 16.4667 28.1209 14.8647 27.421C13.1693 26.7055 11.614 26.6744 9.82532 27.421C7.58561 28.3853 6.40354 28.1053 5.06593 26.8766C-2.52423 19.0532 -1.40437 7.1391 7.21232 6.7036C9.31206 6.81247 10.7741 7.85456 12.0028 7.94789C13.8382 7.5746 15.5957 6.5014 17.5555 6.64138C19.9041 6.82803 21.6772 7.76124 22.8437 9.44103C17.991 12.3496 19.1419 18.7421 23.5903 20.5307C22.7037 22.8638 21.5527 25.1813 19.6396 26.8922L19.6552 26.8766ZM11.8473 6.61028C11.614 3.14183 14.4292 0.279965 17.6643 0C18.1154 4.01283 14.0248 6.99912 11.8473 6.61028Z" fill="black"/>
</g>
</g>
</g>
</g>
</g>
</g>
</svg>
